<?xml version="1.0" encoding="utf-8"?>
<!-- Generator: Adobe Illustrator 16.0.4, SVG Export Plug-In . SVG Version: 6.00 Build 0)  -->
<!DOCTYPE svg PUBLIC "-//W3C//DTD SVG 1.1//EN" "http://www.w3.org/Graphics/SVG/1.1/DTD/svg11.dtd">
<svg version="1.1" id="Layer_1" xmlns="http://www.w3.org/2000/svg" xmlns:xlink="http://www.w3.org/1999/xlink" x="0px" y="0px"
	 width="616.011px" height="511.617px" viewBox="0 0 616.011 511.617" enable-background="new 0 0 616.011 511.617"
	 xml:space="preserve">
<polygon fill="#80C567" points="308.115,155.983 0,333.874 308.115,511.617 616.011,333.852 "/>
<path fill="#E0D07C" d="M79.22,205.478c0,0-36.647,5.34-16.511,27.455c28.725,4.031,112.29,56.029,124.039,94.013
	c6.533,7.943,20.901,11.631,26.116,0C195.886,255.246,79.22,205.478,79.22,205.478z"/>
<path fill="#E0D07C" d="M539.749,243.396c0,0,30.828,3.205,14.434,20.642c-23.973,3.783-92.851,45.654-101.839,75.04
	c-5.311,6.259-17.27,9.438-21.903,0.634C443.085,284.354,539.749,243.396,539.749,243.396z"/>
<polyline fill="#CCCBC8" points="314.578,320.496 359.427,50.213 351.596,43.683 303.28,320.496 "/>
<polygon fill="#E26D44" points="331.357,159.645 303.28,112.772 335.778,0 351.596,43.683 "/>
<polygon points="534.973,247.916 351.411,44.942 84.574,208.501 83.548,206.832 351.777,42.427 536.425,246.602 "/>
<polygon fill="#E26D44" points="337.004,168.196 379.279,133.604 386.89,16.491 357.242,52.242 "/>
</svg>
