<?xml version="1.0" encoding="utf-8"?>
<!-- Generator: Adobe Illustrator 16.0.4, SVG Export Plug-In . SVG Version: 6.00 Build 0)  -->
<!DOCTYPE svg PUBLIC "-//W3C//DTD SVG 1.1//EN" "http://www.w3.org/Graphics/SVG/1.1/DTD/svg11.dtd">
<svg version="1.1" id="Layer_1" xmlns="http://www.w3.org/2000/svg" xmlns:xlink="http://www.w3.org/1999/xlink" x="0px" y="0px"
	 width="528.767px" height="539.637px" viewBox="0 0 528.767 539.637" enable-background="new 0 0 528.767 539.637"
	 xml:space="preserve">
<polyline fill="#E2E2E2" points="0,385.211 263.42,539.637 528.767,386.438 264.383,233.746 "/>
<polygon fill="#C8E2D3" points="157.233,372.05 288.333,447.739 419.538,372.055 419.538,144.979 288.328,69.288 157.337,144.979 
	"/>
<polygon fill="#83AA97" points="288.444,217.424 288.444,444.492 419.652,368.808 419.538,144.979 "/>
<polygon fill="#83AA97" points="167.524,322.532 116.275,406.896 167.524,377.553 "/>
<polygon fill="#C8E2D3" points="158.684,317.588 107.298,401.389 116.38,406.896 167.627,322.532 "/>
<polygon fill="#BDC5C6" points="193.169,352.21 167.627,343.03 159.53,344.587 159.65,353.896 151.021,355.054 152.42,365.475 
	143.852,366.626 145.184,376.521 135.789,377.782 137.185,388.169 128.331,389.355 129.666,399.283 160.133,415.526 "/>
<polygon fill="#F4F9F9" points="167.781,278.287 187.744,289.406 187.744,354.833 167.627,342.771 "/>
<polygon fill="#83AA97" points="202.126,343.03 150.876,427.391 202.126,398.056 "/>
<polygon fill="#C8E2D3" points="193.287,338.081 141.899,421.893 150.981,427.391 202.231,343.03 "/>
<polygon fill="#90D5D9" points="232.263,220.669 255.276,234.061 255.276,278.287 232.089,264.19 "/>
<polygon fill="#90D5D9" points="230.03,305.396 253.044,318.784 253.044,363.016 229.856,348.917 "/>
<polygon fill="#90D5D9" points="176.676,191.86 199.689,205.247 199.689,249.479 176.502,235.378 "/>
<polygon fill="#C8E2D3" points="288.333,220.669 157.337,144.979 217.085,75.689 "/>
<polygon fill="#91C4A9" points="419.379,144.979 288.385,69.291 348.129,0 "/>
<polygon fill="#A57341" points="217.085,75.689 348.129,0 419.379,144.979 288.333,220.669 "/>
</svg>
